<svg xmlns="http://www.w3.org/2000/svg" viewBox="0 0 100 100" x="0px" y="0px"><g fill="#000000" fill-rule="evenodd"><path d="M13,37 C13,31.4799995 29.5654643,27 50,27 C70.4345357,27 87,31.4799995 86.9999213,37 C86.839126,38.4950741 86.546365,40.5314085 86.2318661,42.0263104 C91.1365955,42.3803196 95,46.2627325 95,51 C95,55.9705627 90.7467051,60 85.5,60 C83.3792347,60 81.4207777,59.3416508 79.839917,58.2289097 C79.3885464,58.9903041 78.919905,59.7396746 78.435007,60.4754186 C88.5448496,63.4094024 95,67.875169 95,72.877 C95,81.713556 74.8528137,88.877 50,88.877 C25.1471863,88.877 5,81.713556 5,72.877 C5,67.8681389 11.4733087,63.3968501 21.6076431,60.4630565 C17.049125,53.5819659 13.8601953,44.9521519 13,37 Z M16,72.5 C16,77 29.7253362,84 50,84 C70.2746638,84 84,77 84,72.5 C84,70.2109585 80.4485533,67.7925414 74.2901696,65.9686613 C67.5750095,73.751663 58.9294259,79 50.0713573,79 C41.2067261,79 32.5204706,73.7438835 25.7683919,65.9513588 C19.5739665,67.7772291 16,70.2037125 16,72.5 Z M85.5,56 C88.5375661,56 91,53.7614237 91,51 C91,48.2385763 88.2559104,46.0064428 85.2183443,46.0064428 C84.3300018,48.9700012 83.1706326,51.883481 81.775117,54.6787942 C82.7548518,55.4990567 84.063075,56 85.5,56 Z M50,44 C66.5685425,44 80,40.6421356 80,36.5 C80,32.3578644 66.5685425,29 50,29 C33.4314575,29 20,32.3578644 20,36.5 C20,40.6421356 33.4314575,44 50,44 Z"></path><g transform="matrix(-1 0 0 1 60 7.5)"><path d="M2.15093707 4.74390381C2.22923351 5.63883623 3.71971083 7.02913029 4.3912936 7.61335474L3.05090564 9.21076691C2.6763234 8.86605724.307806363 6.62424991.158547675 4.9182153-.00356197686 3.0652935 2.15356412.522410599 2.3157896.28533306 2.77636405-.387753944 4.59538014.478165369 4.12840517 1.13056958 3.93168534 1.40540411 2.04969512 3.58670304 2.15093707 4.74390381zM5.29218504 12.079118C5.2138886 11.1841856 3.72341128 9.79389152 3.05182851 9.20966707L4.39221648 7.6122549C4.76679871 7.95696457 7.13531575 10.1987719 7.28457444 11.9048065 7.44668409 13.7577283 5.28955799 16.3006112 5.12733252 16.5376887 4.66675807 17.2107758 2.84774197 16.3448564 3.31471694 15.6924522 3.51143677 15.4176177 5.39342699 13.2363188 5.29218504 12.079118zM14.1509371 4.74390381C14.2292335 5.63883623 15.7197108 7.02913029 16.3912936 7.61335474L15.0509056 9.21076691C14.6763234 8.86605724 12.3078064 6.62424991 12.1585477 4.9182153 11.996438 3.0652935 14.1535641.522410599 14.3157896.28533306 14.776364-.387753944 16.5953801.478165369 16.1284052 1.13056958 15.9316853 1.40540411 14.0496951 3.58670304 14.1509371 4.74390381zM17.292185 12.079118C17.2138886 11.1841856 15.7234113 9.79389152 15.0518285 9.20966707L16.3922165 7.6122549C16.7667987 7.95696457 19.1353158 10.1987719 19.2845744 11.9048065 19.4466841 13.7577283 17.289558 16.3006112 17.1273325 16.5376887 16.6667581 17.2107758 14.847742 16.3448564 15.3147169 15.6924522 15.5114368 15.4176177 17.393427 13.2363188 17.292185 12.079118z"></path></g></g></svg>