<svg xmlns="http://www.w3.org/2000/svg" viewBox="0 0 100 100" x="0px" y="0px"><g fill="#000000" fill-rule="evenodd"><path d="M20,41 C19.3718035,36.5945735 33.4314575,33 50,33 C66.5685425,33 80.7150916,36.6006203 80,41 C79.5400009,43.8300018 79.160212,45.6745065 78.6426758,47.5009944 C83.8235963,47.5732541 88,51.5745711 88,56.5 C88,57.5543657 87.8086198,58.5663848 87.4569738,59.5065805 C92.2221374,62.0453086 95,65.0958113 95,68.377 C95,77.213556 74.8528137,84.377 50,84.377 C25.1471863,84.377 5,77.213556 5,68.377 C5,62.9201448 12.6830417,58.1013236 24.4127446,55.2134717 C22.2615433,51.0137907 20.7800007,46.4700012 20,41 Z M16,68 C16,72.5 29.7253362,79.5 50,79.5 C70.2746638,79.5 84,72.5 84,68 C84,66.9696741 83.2804728,65.9131365 81.9275513,64.8964033 C80.8642966,65.2862211 79.7085007,65.5 78.5,65.5 C75.547124,65.5 72.9089111,64.2236744 71.1664973,62.2215731 C65.5609138,69.4517094 57.910705,74.5 50.0535204,74.5 C41.7189355,74.5 33.5795677,68.8196071 27.8721622,60.8801486 C20.3900862,62.7500765 16,65.4550014 16,68 Z M78.5,61.5 C81.5375661,61.5 84,59.2614237 84,56.5 C84,53.7385763 81.5375661,51.5 78.5,51.5 C78.0629414,51.5 77.6377896,51.5463447 77.2301665,51.6339232 C76.2388047,54.107111 75.0111736,56.5042955 73.5910294,58.7572241 C74.4982528,60.384591 76.3558416,61.5 78.5,61.5 Z M50,46.5 C63.5309764,46.5 74.5,43.8137085 74.5,40.5 C74.5,37.1862915 63.5309764,34.5 50,34.5 C36.4690236,34.5 25.5,37.1862915 25.5,40.5 C25.5,43.8137085 36.4690236,46.5 50,46.5 Z"></path><path d="M16.4372017,6.60003686 C16.536536,7.42048511 17.9566913,8.73625695 18.5953178,9.29052785 L17.4038618,10.7104498 C17.047094,10.3840657 14.789348,8.26347139 14.5999841,6.69942802 C14.3943162,5.00072272 16.3126006,2.74108632 16.4554847,2.52924619 C16.861147,1.92781073 18.5693395,2.77411759 18.1571359,3.35645351 C17.9834893,3.60177078 16.3087564,5.53914854 16.4372017,6.60003686 Z M19.5627983,13.3999631 C19.463464,12.5795149 18.0433087,11.2637431 17.4046822,10.7094721 L18.5961382,9.28955021 C18.952906,9.61593429 21.210652,11.7365286 21.4000159,13.300572 C21.6056838,14.9992773 19.6873994,17.2589137 19.5445153,17.4707538 C19.138853,18.0721893 17.4306605,17.2258824 17.8428641,16.6435465 C18.0165107,16.3982292 19.6912436,14.4608515 19.5627983,13.3999631 Z" transform="matrix(-1 0 0 1 68 12)"></path></g></svg>